/* XPM */
static char * button_stuck_active_xpm[] = {
"22 22 9 1",
" 	c None",
".	c #475057",
"+	c #555D64",
"@	c #9FA4A6",
"#	c #BDC3C5",
"$	c #CCD1D3",
"%	c #EFF0F1",
"&	c #747B83",
"*	c #8D9397",
"......................",
"......................",
"......................",
"......................",
"......................",
".......+@#$%#@+.......",
"......&#%%%%%%#&......",
"......#%%%%%%%%#......",
".....@%%%%%%%%%%@.....",
".....#%%%%%%%%%%#.....",
".....%%%%%..%%%%$.....",
".....$%%%%..%%%%%.....",
".....#%%%%%%%%%%#.....",
".....*%%%%%%%%%%*.....",
".....+#%%%%%%%%#+.....",
"......&#%%%%%%#&......",
"........*#$$#*........",
"......................",
"......................",
"......................",
"......................",
"......................"};
