/* XPM */
static char * button_close_pressed_xpm[] = {
"22 22 9 1",
" 	c None",
".	c #495057",
"+	c #7C4348",
"@	c #B52C2F",
"#	c #EE1011",
"$	c #FC7A7C",
"%	c #F0AFB0",
"&	c #EBF1F3",
"*	c #F0C7C9",
"......................",
"......................",
".......+@@##@@+.......",
".....+@########@+.....",
"....+@##########@+....",
"...+@############@+...",
"...@##############@...",
"..+####$%####%$####+..",
"..@####%&*##*&%####@..",
"..@#####*&**&*#####@..",
"..#######*&&*#######..",
"..#######*&&*#######..",
"..@#####*&**&*#####@..",
"..@####%&*##*&%####@..",
"..+####$%####%$####+..",
"...@##############@...",
"...+@############@+...",
"....+@##########@+....",
".....+@########@+.....",
".......+@@##@@+.......",
"......................",
"......................"};
