/* XPM */
static char * button_min_active_xpm[] = {
"22 22 7 1",
" 	c None",
".	c #475057",
"+	c #8D9397",
"@	c #9FA4A6",
"#	c #CCD1D3",
"$	c #EFF0F1",
"%	c #747B83",
"......................",
"......................",
"......................",
"......................",
"......................",
"......................",
"......................",
"......................",
"......+@......@+......",
"......#$@....@$#......",
"......%$$@..@$$%......",
".......%$$@@$$%.......",
"........%$$$$%........",
".........%$$%.........",
"......................",
"......................",
"......................",
"......................",
"......................",
"......................",
"......................",
"......................"};
