/* XPM */
static char * button_max_active_xpm[] = {
"22 22 7 1",
" 	c None",
".	c #495057",
"+	c #747B83",
"@	c #EBF1F3",
"#	c #9FA4A6",
"$	c #CCD1D3",
"%	c #8D9397",
"......................",
"......................",
"......................",
"......................",
"......................",
"......................",
"......................",
"......................",
".........+@@+.........",
"........+@@@@+........",
".......+@@##@@+.......",
"......+@@#..#@@+......",
"......$@#....#@$......",
"......%#......#%......",
"......................",
"......................",
"......................",
"......................",
"......................",
"......................",
"......................",
"......................"};
