/* XPM */
static char * button_max_pressed_xpm[] = {
"22 22 4 1",
" 	c None",
".	c #495057",
"+	c #555D64",
"@	c #686F76",
"......................",
"......................",
".......+@@@@@@+.......",
".....+@@@@@@@@@@+.....",
"....+@@@@@@@@@@@@+....",
"...+@@@@@@@@@@@@@@+...",
"...@@@@@@@@@@@@@@@@...",
"..+@@@@@@@@@@@@@@@@+..",
"..@@@@@@@@..@@@@@@@@..",
"..@@@@@@@....@@@@@@@..",
"..@@@@@@..++..@@@@@@..",
"..@@@@@..+@@+..@@@@@..",
"..@@@@+.+@@@@+.+@@@@..",
"..@@@@++@@@@@@++@@@@..",
"..+@@@@@@@@@@@@@@@@+..",
"...@@@@@@@@@@@@@@@@...",
"...+@@@@@@@@@@@@@@+...",
"....+@@@@@@@@@@@@+....",
".....++@@@@@@@@++.....",
".......++@@@@++.......",
"......................",
"......................"};
