/* XPM */
static char * button_max_unfocus_xpm[] = {
"22 22 4 1",
" 	c None",
".	c #EBF1F3",
"+	c #BDC3C5",
"@	c #CCD1D3",
"......................",
"......................",
"......................",
"......................",
"......................",
"......................",
"......................",
"......................",
"..........++..........",
".........++++.........",
"........++@@++........",
".......++@..@++.......",
"......@+@....@+@......",
"......@@......@@......",
"......................",
"......................",
"......................",
"......................",
"......................",
"......................",
"......................",
"......................"};
