/* XPM */
static char * button_stuck_pressed_xpm[] = {
"22 22 5 1",
" 	c None",
".	c #495057",
"+	c #555D64",
"@	c #686F76",
"#	c #EBF1F3",
"......................",
"......................",
".......+@@@@@@+.......",
".....+@@@@@@@@@@+.....",
"....+@@@@@@@@@@@@+....",
"...+@@@@@+..+@@@@@+...",
"...@@@@+......+@@@@...",
"..+@@@+........+@@@+..",
"..@@@+..........+@@@..",
"..@@@+..........+@@@..",
"..@@@.....##.....@@@..",
"..@@@.....##.....@@@..",
"..@@@+..........+@@@..",
"..@@@+..........+@@@..",
"..+@@@+........+@@@+..",
"...@@@@+......+@@@@...",
"...+@@@@++..++@@@@+...",
"....+@@@@@@@@@@@@+....",
".....++@@@@@@@@++.....",
".......++@@@@++.......",
"......................",
"......................"};
