/* XPM */
static char * checkbox_unselected_xpm[] = {
"16 16 6 1",
" 	c None",
".	c #EBF1F3",
"+	c #747B83",
"@	c #CCD1D3",
"#	c #8D9397",
"$	c #BDC3C5",
"................",
"..#++++++++++#..",
".#$..........$#.",
".+............+.",
".+............+@",
".+............+@",
".+............+@",
".+............+@",
".+............+@",
".+............+@",
".+............+@",
".+............+@",
".+............+@",
".#$..........$#.",
"..#++++++++++#@.",
"....@@@@@@@@@..."};
