/* XPM */
static char * toolbar_active_xpm[] = {
"1 20 3 1",
" 	c None",
".	c #CACACE",
"+	c #EFF0F1",
".",
".",
".",
"+",
"+",
"+",
"+",
"+",
"+",
"+",
"+",
"+",
"+",
"+",
"+",
"+",
"+",
"+",
"+",
"+"};
