/* XPM */
static char * submenu_xpm[] = {
"12 12 4 1",
" 	c None",
".	c #8D9397",
"+	c #475057",
"@	c #9FA4A6",
"            ",
"    ..      ",
"    .+.     ",
"     .+.    ",
"      .+.   ",
"       .+@  ",
"       .+@  ",
"      .+.   ",
"     .+.    ",
"    .+.     ",
"    ..      ",
"            "};
