/* XPM */
static char * toolbar_background_xpm[] = {
"1 30 4 1",
" 	c None",
".	c #9B9B9C",
"+	c #EFF0F1",
"@	c #F9F9F9",
".",
"@",
"+",
"+",
"+",
"+",
"+",
"+",
"+",
"+",
"+",
"+",
"+",
"+",
"+",
"+",
"+",
"+",
"+",
"+",
"+",
"+",
"+",
"+",
"+",
"+",
"+",
"+",
"+",
"+"};
